<?xml version="1.0" encoding="UTF-8"?>
<svg id="Camada_2" data-name="Camada 2" xmlns="http://www.w3.org/2000/svg" viewBox="0 0 73.17 78.37">
  <defs>
    <style>
      .cls-1 {
        fill: #3e7e45;
      }

      .cls-1, .cls-2 {
        stroke-width: 0px;
      }

      .cls-2 {
        fill: #fff;
      }
    </style>
  </defs>
  <g id="Camada_2-2" data-name="Camada 2">
    <g>
      <rect class="cls-2" width="73.17" height="78.37"/>
      <path class="cls-1" d="M56.46,67.35c-2.2,0-4.14.13-6.04-.08-.56-.06-1.23-1.03-1.47-1.71-2.59-7.56-5.14-15.13-7.62-22.72-.46-1.4-1.05-2.04-2.63-1.97-3.07.14-6.15.11-9.22.01-1.35-.04-1.98.37-2.45,1.68-2.73,7.79-5.57,15.55-8.38,23.31-.3.84-.43,1.94-1.96,1.24,6.75-18.7,13.49-37.39,20.23-56.08.24-.02.49-.04.73-.07,6.24,18.71,12.47,37.42,18.79,56.38ZM34.72,23.17c-.2,0-.41.02-.62.03-1.93,5.34-3.86,10.68-5.86,16.22h11.85c-1.82-5.52-3.6-10.89-5.37-16.25Z"/>
    </g>
  </g>
</svg>